<svg width="28" height="28" viewBox="0 0 28 28" fill="none" xmlns="http://www.w3.org/2000/svg">
<path fill-rule="evenodd" clip-rule="evenodd" d="M9.51017 7.25C9.51353 7.18113 9.51784 7.11027 9.52328 7.03783C9.57349 6.36912 9.73195 5.3571 10.3086 4.60434C11.2236 3.41005 12.605 2.75 14 2.75C15.395 2.75 16.7764 3.41005 17.6914 4.60434C18.2681 5.3571 18.4265 6.36913 18.4767 7.03783C18.4822 7.11027 18.4865 7.18113 18.4898 7.25H20.5C22.7091 7.25 24.5 9.04086 24.5 11.25V18.75C24.5 22.3399 21.5899 25.25 18 25.25H10C6.41015 25.25 3.5 22.3399 3.5 18.75V11.25C3.5 9.04086 5.29086 7.25 7.5 7.25H9.51017ZM16.4867 7.25C16.4854 7.22935 16.4839 7.20853 16.4823 7.18756C16.4376 6.59182 16.3063 6.0851 16.1037 5.82066C15.5643 5.11654 14.7679 4.75 14 4.75C13.2321 4.75 12.4357 5.11654 11.8963 5.82066C11.6937 6.0851 11.5624 6.59182 11.5177 7.18756C11.5161 7.20853 11.5146 7.22935 11.5133 7.25H16.4867ZM11.4853 11.8292C11.3916 11.288 10.8782 10.9232 10.3356 11.0136C9.79083 11.1044 9.42281 11.6196 9.51361 12.1644L10.5 12C9.51361 12.1644 9.51352 12.1639 9.51361 12.1644L9.51394 12.1664L9.51434 12.1687L9.51528 12.1742L9.51783 12.1884C9.51983 12.1994 9.52245 12.2132 9.52577 12.2298C9.53239 12.2629 9.5418 12.307 9.55454 12.3605C9.57996 12.4673 9.619 12.613 9.67632 12.785C9.78988 13.1257 9.98096 13.5867 10.2929 14.0547C10.9354 15.0184 12.0949 16 14 16C15.9051 16 17.0646 15.0184 17.7071 14.0547C18.019 13.5867 18.2101 13.1257 18.3237 12.785C18.381 12.613 18.42 12.4673 18.4455 12.3605C18.4582 12.307 18.4676 12.2629 18.4742 12.2298C18.4775 12.2132 18.4802 12.1994 18.4822 12.1884L18.4847 12.1742L18.4857 12.1687L18.4861 12.1664L18.4862 12.1654C18.4863 12.1649 18.4864 12.1644 17.5 12L18.4862 12.1654C18.577 11.6206 18.2092 11.1044 17.6644 11.0136C17.1218 10.9232 16.6084 11.288 16.5147 11.8292L16.5131 11.8376C16.5109 11.8484 16.5066 11.8688 16.4999 11.8973C16.4862 11.9546 16.4628 12.0432 16.4263 12.1525C16.3524 12.3743 16.231 12.6633 16.0429 12.9453C15.6854 13.4816 15.0949 14 14 14C12.9051 14 12.3146 13.4816 11.9571 12.9453C11.769 12.6633 11.6476 12.3743 11.5737 12.1525C11.5372 12.0432 11.5138 11.9546 11.5001 11.8973C11.4934 11.8688 11.4891 11.8484 11.4869 11.8376L11.4853 11.8292Z" fill="black"/>
</svg>
