<svg width="28" height="28" viewBox="0 0 28 28" fill="none" xmlns="http://www.w3.org/2000/svg">
<path fill-rule="evenodd" clip-rule="evenodd" d="M14 22.5C18.9706 22.5 23 18.4706 23 13.5C23 8.52944 18.9706 4.5 14 4.5C9.02944 4.5 5 8.52944 5 13.5C5 15.9349 5.96426 18.1404 7.53609 19.7624C7.89075 20.1284 8.07542 20.5372 8.17719 20.8277C8.28263 21.1287 8.3409 21.4254 8.37739 21.6692C8.42993 22.0202 8.45626 22.4077 8.4748 22.7305C8.80392 22.597 9.22063 22.4299 9.61313 22.3109C10.0298 22.1847 10.8324 21.9723 11.6708 22.1962C12.4115 22.394 13.1919 22.5 14 22.5ZM7.37411 23.116C7.37481 23.1151 7.38837 23.1126 7.41271 23.1112C7.38559 23.1162 7.37342 23.1169 7.37411 23.116ZM8.57828 23.8911C8.59085 23.9233 8.59545 23.9428 8.59462 23.9445C8.59378 23.9461 8.5875 23.93 8.57828 23.8911ZM14 24.5C20.0751 24.5 25 19.5751 25 13.5C25 7.42487 20.0751 2.5 14 2.5C7.92487 2.5 3 7.42487 3 13.5C3 16.475 4.18104 19.1742 6.09983 21.1543C6.40069 21.4647 6.44348 22.2288 6.48671 23.0007C6.53525 23.8676 6.58435 24.7443 7 25C7.47652 25.2931 8.33112 24.9469 9.18253 24.6019C9.92758 24.3 10.6702 23.9991 11.1549 24.1285C12.0624 24.3708 13.0161 24.5 14 24.5Z" fill="black"/>
<path d="M11.5558 11.5661C10.5558 11.5661 7.55577 16.5661 8.05577 16.5661C8.55577 16.5661 11.5558 14.5661 12.0558 14.5661C12.5558 14.5661 15.0558 16.5661 15.5558 16.5661C16.0558 16.5661 19.5558 12.0661 19.5558 11.5661C19.5558 11.0661 15.5558 13.5661 15.0558 13.5661C14.5558 13.5661 12.5558 11.5661 11.5558 11.5661Z" fill="black" stroke="black" stroke-width="0.5"/>
</svg>
