<svg width="28" height="28" viewBox="0 0 28 28" fill="none" xmlns="http://www.w3.org/2000/svg">
<path d="M17.477 8.25C17.477 8.25 17.6768 6.22969 16.8975 5.2125C16.1703 4.26329 15.0815 3.75 14 3.75C12.9185 3.75 11.8297 4.26329 11.1025 5.2125C10.3232 6.22969 10.523 8.25 10.523 8.25" stroke="black" stroke-width="2" stroke-linecap="round"/>
<path d="M4.5 11.25C4.5 9.59315 5.84315 8.25 7.5 8.25H20.5C22.1569 8.25 23.5 9.59315 23.5 11.25V18.75C23.5 21.7876 21.0376 24.25 18 24.25H10C6.96243 24.25 4.5 21.7876 4.5 18.75V11.25Z" stroke="black" stroke-width="2"/>
<path d="M11.4864 11.8356C11.3956 11.2908 10.8804 10.9228 10.3356 11.0136C9.79083 11.1044 9.42281 11.6196 9.51361 12.1644L11.4864 11.8356ZM18.4864 12.1644C18.5772 11.6196 18.2092 11.1044 17.6644 11.0136C17.1196 10.9228 16.6044 11.2908 16.5136 11.8356L18.4864 12.1644ZM10.5 12C9.51361 12.1644 9.51369 12.1649 9.51377 12.1654C9.5138 12.1656 9.51388 12.1661 9.51394 12.1664C9.51407 12.1671 9.5142 12.1679 9.51434 12.1687C9.51461 12.1704 9.51493 12.1722 9.51528 12.1742C9.51598 12.1782 9.51682 12.1829 9.51783 12.1884C9.51983 12.1994 9.52245 12.2132 9.52577 12.2298C9.53239 12.2629 9.5418 12.307 9.55454 12.3605C9.57996 12.4673 9.619 12.613 9.67632 12.785C9.78988 13.1257 9.98096 13.5867 10.2929 14.0547C10.9354 15.0184 12.0949 16 14 16V14C12.9051 14 12.3146 13.4816 11.9571 12.9453C11.769 12.6633 11.6476 12.3743 11.5737 12.1525C11.5372 12.0432 11.5138 11.9546 11.5001 11.8973C11.4934 11.8688 11.4891 11.8484 11.4869 11.8376C11.4858 11.8322 11.4853 11.8292 11.4852 11.8288C11.4852 11.8286 11.4853 11.829 11.4855 11.8302C11.4856 11.8307 11.4857 11.8315 11.4858 11.8324C11.4859 11.8328 11.486 11.8333 11.4861 11.8339C11.4861 11.8341 11.4862 11.8346 11.4862 11.8347C11.4863 11.8351 11.4864 11.8356 10.5 12ZM14 16C15.9051 16 17.0646 15.0184 17.7071 14.0547C18.019 13.5867 18.2101 13.1257 18.3237 12.785C18.381 12.613 18.42 12.4673 18.4455 12.3605C18.4582 12.307 18.4676 12.2629 18.4742 12.2298C18.4775 12.2132 18.4802 12.1994 18.4822 12.1884C18.4832 12.1829 18.484 12.1782 18.4847 12.1742C18.4851 12.1722 18.4854 12.1704 18.4857 12.1687C18.4858 12.1679 18.4859 12.1671 18.4861 12.1664C18.4861 12.1661 18.4862 12.1656 18.4862 12.1654C18.4863 12.1649 18.4864 12.1644 17.5 12C16.5136 11.8356 16.5137 11.8351 16.5138 11.8347C16.5138 11.8346 16.5139 11.8341 16.5139 11.8339C16.514 11.8333 16.5141 11.8328 16.5142 11.8324C16.5143 11.8315 16.5144 11.8307 16.5145 11.8302C16.5147 11.829 16.5148 11.8286 16.5148 11.8288C16.5147 11.8292 16.5142 11.8322 16.5131 11.8376C16.5109 11.8484 16.5066 11.8688 16.4999 11.8973C16.4862 11.9546 16.4628 12.0432 16.4263 12.1525C16.3524 12.3743 16.231 12.6633 16.0429 12.9453C15.6854 13.4816 15.0949 14 14 14V16Z" fill="black"/>
</svg>
