<svg width="28" height="28" viewBox="0 0 28 28" fill="none" xmlns="http://www.w3.org/2000/svg">
<path d="M17.3 15.5072C17.8333 15.8151 17.8333 16.5849 17.3 16.8928L12.95 19.4043C12.4167 19.7122 11.75 19.3273 11.75 18.7115L11.75 13.6885C11.75 13.0727 12.4167 12.6878 12.95 12.9957L17.3 15.5072Z" fill="black"/>
<path fill-rule="evenodd" clip-rule="evenodd" d="M11.118 5H15.382L15.6056 5.44721L16.882 8L12.618 8L12.3944 7.55279L11.118 5ZM10.382 8L9.10557 5.44721L8.98729 5.21064C7.50995 5.63236 6.28661 6.65629 5.59971 8L10.382 8ZM5.02242 10C5.00758 10.1647 5 10.3315 5 10.5V17.5C5 20.5376 7.46243 23 10.5 23H17.5C20.5376 23 23 20.5376 23 17.5V10.5C23 10.3315 22.9924 10.1647 22.9776 10L5.02242 10ZM22.4003 8C21.5068 6.2522 19.7058 5.04543 17.6187 5.00125L18.8944 7.55279L19.118 8L22.4003 8ZM10.5 3C6.35786 3 3 6.35786 3 10.5V17.5C3 21.6421 6.35786 25 10.5 25H17.5C21.6421 25 25 21.6421 25 17.5V10.5C25 6.35786 21.6421 3 17.5 3H10.5Z" fill="black"/>
</svg>
