<svg width="28" height="28" viewBox="0 0 28 28" fill="none" xmlns="http://www.w3.org/2000/svg">
<path d="M4.16552 13.051L13.9331 4.26016C13.9711 4.22593 14.0289 4.22593 14.0669 4.26016L23.8345 13.051C23.9398 13.1458 24 13.2809 24 13.4226V23.7473C24 23.8025 23.9552 23.8473 23.9 23.8473H17.1C17.0448 23.8473 17 23.8025 17 23.7473V18.5C17 16.8431 15.6569 15.5 14 15.5C12.3431 15.5 11 16.8431 11 18.5V23.7473C11 23.8025 10.9552 23.8473 10.9 23.8473H4.1C4.04477 23.8473 4 23.8025 4 23.7473V13.4226C4 13.2809 4.06016 13.1458 4.16552 13.051Z" stroke="black" stroke-width="2"/>
</svg>
