<svg width="28" height="28" viewBox="0 0 28 28" fill="none" xmlns="http://www.w3.org/2000/svg">
<path fill-rule="evenodd" clip-rule="evenodd" d="M17.6878 17.9163C16.3407 19.207 14.5129 20 12.5 20C8.35786 20 5 16.6421 5 12.5C5 8.35786 8.35786 5 12.5 5C16.6421 5 20 8.35786 20 12.5C20 14.5129 19.207 16.3407 17.9163 17.6878C17.8731 17.719 17.8318 17.754 17.7929 17.7929C17.754 17.8318 17.719 17.8731 17.6878 17.9163ZM18.4733 19.8875C16.8415 21.2086 14.7631 22 12.5 22C7.25329 22 3 17.7467 3 12.5C3 7.25329 7.25329 3 12.5 3C17.7467 3 22 7.25329 22 12.5C22 14.7631 21.2086 16.8415 19.8875 18.4733L24.7071 23.2929C25.0976 23.6834 25.0976 24.3166 24.7071 24.7071C24.3166 25.0976 23.6834 25.0976 23.2929 24.7071L18.4733 19.8875Z" fill="black"/>
</svg>
