<svg width="116" height="33" viewBox="0 0 116 33" fill="none" xmlns="http://www.w3.org/2000/svg">
<path d="M5.97016 0.114869C3.59593 1.11151 0.985869 3.92714 0.161525 7.46137C-0.882441 11.9394 3.46199 13.833 3.81832 13.2121C4.23772 12.4825 3.03985 12.2358 2.79328 9.91243C2.4746 6.91157 3.86575 3.55844 5.61655 2.08719C5.94199 1.81385 5.92651 2.1943 5.92651 2.89801C5.92651 4.15642 5.85717 15.4533 5.85717 17.8109C5.85717 21.0011 5.72578 22.0085 5.4898 23.004C5.2507 24.0128 4.8663 24.6944 5.15757 24.957C5.483 25.2507 6.87246 24.5521 7.67684 23.4262C8.64141 22.0759 8.97905 20.4543 9.03968 18.6933C9.11289 16.5704 9.10977 13.2018 9.11289 11.2804C9.11582 9.51815 9.14249 4.35797 9.08209 1.25586C9.06728 0.49498 6.96318 -0.302373 5.97016 0.114869ZM90.2787 15.0448C90.2022 16.7033 89.8361 17.9997 89.3818 18.9141C88.5022 20.6843 86.677 21.2339 85.902 18.6892C85.4797 17.3021 85.46 14.9854 85.7636 13.0497C86.0727 11.0778 86.9357 9.5885 88.3647 9.72281C89.7742 9.85558 90.4339 11.677 90.2787 15.0448ZM66.5171 25.3346C66.4979 28.0903 66.0655 30.5065 65.138 31.2083C63.8227 32.2034 62.0547 31.457 62.4208 29.4461C62.7447 27.6666 64.2766 25.8494 66.5208 23.629C66.5208 23.629 66.5254 24.1353 66.5171 25.3346ZM66.1578 15.0288C66.0774 16.5393 65.6869 18.0568 65.2608 18.9143C64.3814 20.6844 62.543 21.2378 61.7811 18.6894C61.2602 16.9482 61.385 14.6946 61.6427 13.2747C61.9772 11.4324 62.7878 9.72321 64.2438 9.72321C65.6593 9.72321 66.3574 11.2805 66.1578 15.0288ZM52.3927 15.0057C52.3064 16.6055 51.9951 17.9429 51.4957 18.9143C50.5921 20.6723 48.8044 21.2298 48.016 18.6894C47.4476 16.8576 47.6411 14.3598 47.8775 13.0105C48.2284 11.0083 49.107 9.5887 50.4786 9.72321C51.8876 9.86125 52.5725 11.677 52.3927 15.0057ZM115.475 16.8743C115.131 16.8743 114.974 17.2304 114.844 17.8297C114.393 19.9134 113.919 20.3839 113.307 20.3839C112.624 20.3839 112.011 19.3521 111.853 17.2867C111.729 15.6626 111.749 12.6726 111.907 9.69836C111.94 9.08726 111.772 8.48263 110.137 7.88719C109.434 7.63108 108.412 7.25396 107.903 8.48615C106.464 11.9673 105.902 14.7311 105.769 15.8538C105.762 15.9119 105.691 15.9238 105.679 15.788C105.595 14.8888 105.406 13.2547 105.383 9.82153C105.378 9.15168 105.236 8.58151 104.499 8.11471C104.021 7.81181 102.568 7.2761 102.045 7.91342C101.592 8.43466 101.067 9.83738 100.522 11.5001C100.079 12.8516 99.7699 13.7658 99.7699 13.7658C99.7699 13.7658 99.7758 10.1193 99.781 8.73619C99.7834 8.21438 99.4265 8.04051 99.3189 8.00899C98.8345 7.868 97.8801 7.63246 97.475 7.63246C96.9751 7.63246 96.8527 7.91265 96.8527 8.3209C96.8527 8.37435 96.7738 13.1218 96.7738 16.4414C96.7738 16.5856 96.7738 16.7429 96.7753 16.91C96.4988 18.4358 95.6023 20.5069 94.6272 20.5069C93.6509 20.5069 93.1904 19.641 93.1904 15.6835C93.1904 13.3748 93.2595 12.3709 93.2934 10.7012C93.3132 9.73937 93.3513 9.00079 93.3491 8.83319C93.3419 8.31921 92.4557 8.06016 92.0433 7.96442C91.629 7.86788 91.2689 7.83048 90.9878 7.84653C90.5899 7.86905 90.3083 8.13085 90.3083 8.49093C90.3083 8.68399 90.3105 9.05111 90.3105 9.05111C89.798 8.24343 88.9737 7.68128 88.4252 7.51838C86.948 7.07841 85.4065 7.46825 84.2438 9.09988C83.3197 10.3963 82.7626 11.8646 82.5434 13.9742C82.3831 15.5164 82.4354 17.0804 82.7203 18.403C82.376 19.8955 81.737 20.5069 81.0372 20.5069C80.0214 20.5069 79.2849 18.8441 79.3704 15.9682C79.4268 14.0767 79.8042 12.7492 80.2168 10.8288C80.3927 10.0102 80.2498 9.58154 79.8913 9.17075C79.5625 8.79403 78.862 8.60156 77.8549 8.83828C77.1375 9.00706 76.1119 9.18857 75.1735 9.32798C75.1735 9.32798 75.2302 9.10144 75.2766 8.70201C75.5207 6.60731 73.2509 6.77726 72.5268 7.44632C72.0945 7.84576 71.8002 8.31686 71.6886 9.1639C71.5115 10.5081 72.6047 11.1421 72.6047 11.1421C72.246 12.7886 71.3668 14.9395 70.4591 16.4945C69.9729 17.3277 69.601 17.9451 69.1209 18.6014C69.1191 18.357 69.1178 18.1127 69.1169 17.8694C69.1059 14.4078 69.1518 11.6834 69.1721 10.7015C69.1919 9.7397 69.2303 9.02071 69.2282 8.85311C69.2228 8.47717 69.0039 8.33521 68.5485 8.15545C68.1459 7.99647 67.6699 7.88643 67.1761 7.84805C66.5529 7.7993 66.1774 8.13079 66.1872 8.52279C66.1891 8.5968 66.1891 9.05126 66.1891 9.05126C65.6766 8.24357 64.8522 7.68143 64.3038 7.51851C62.8265 7.07874 61.2851 7.46858 60.1224 9.10001C59.1984 10.3964 58.5934 12.2156 58.4219 13.9583C58.2622 15.5824 58.2917 16.9627 58.5094 18.1253C58.2745 19.2896 57.5992 20.5071 56.8356 20.5071C55.8593 20.5071 55.3038 19.6412 55.3038 15.6837C55.3038 13.375 55.373 12.3711 55.4069 10.7015C55.4266 9.7397 55.4647 9.00094 55.4626 8.83353C55.4554 8.31955 54.5691 8.0605 54.1568 7.96455C53.7253 7.8645 53.3527 7.82769 53.0667 7.84883C52.6893 7.87703 52.4239 8.21597 52.4239 8.46875V9.05126C51.9114 8.24357 51.0871 7.68143 50.5386 7.51851C49.0614 7.07874 47.5285 7.47486 46.3572 9.10001C45.5934 10.1597 44.975 11.3345 44.6568 13.9352C44.5648 14.6867 44.5242 15.3905 44.5295 16.0483C44.2249 17.9163 42.8796 20.0693 41.7792 20.0693C41.1353 20.0693 40.522 18.8167 40.522 16.1473C40.522 12.5916 40.7415 7.52889 40.7786 7.04096C40.7786 7.04096 42.1689 7.01727 42.4382 7.01412C43.1317 7.00648 43.7598 7.02293 44.6835 6.97555C45.1469 6.95186 45.5932 5.2844 45.115 5.07804C44.8983 4.98463 43.3666 4.90279 42.7594 4.88987C42.2488 4.87826 40.8274 4.77278 40.8274 4.77278C40.8274 4.77278 40.9549 1.41241 40.9846 1.05743C41.0098 0.761567 40.628 0.609238 40.4092 0.516807C39.8769 0.291052 39.4007 0.182962 38.8363 0.0662661C38.0564 -0.095067 37.7026 0.0627414 37.6335 0.722791C37.5295 1.72453 37.4756 4.65862 37.4756 4.65862C36.9033 4.65862 34.9485 4.54643 34.376 4.54643C33.8442 4.54643 33.2701 6.84026 34.0054 6.86845C34.8514 6.90135 36.3258 6.92974 37.3032 6.95931C37.3032 6.95931 37.2596 12.1054 37.2596 13.6941C37.2596 13.8632 37.2611 14.0259 37.2614 14.1839C36.7235 16.9956 34.8288 18.5144 34.8288 18.5144C35.2357 16.6543 34.4045 15.2574 32.9074 14.075C32.3558 13.6393 31.2669 12.8144 30.0485 11.9104C30.0485 11.9104 30.7542 11.213 31.3799 9.80984C31.8233 8.81594 31.8425 7.67852 30.7542 7.42771C28.9559 7.01299 27.4732 8.33739 27.031 9.75129C26.6883 10.8466 26.8711 11.6594 27.5423 12.5037C27.5914 12.5654 27.6445 12.6284 27.6993 12.6918C27.2934 13.4765 26.7358 14.5328 26.2635 15.352C24.9526 17.6265 23.9623 19.4255 23.2139 19.4255C22.6156 19.4255 22.6237 17.599 22.6237 15.8889C22.6237 14.4147 22.7322 12.1982 22.8189 9.90343C22.8476 9.1445 22.4692 8.71216 21.8349 8.32056C21.4494 8.08266 20.6269 7.61489 20.1505 7.61489C19.4374 7.61489 17.3801 7.7122 15.4362 13.3511C15.1912 14.0619 14.71 15.3569 14.71 15.3569L14.7514 8.57588C14.7514 8.4169 14.6669 8.26319 14.4736 8.15804C14.146 7.97967 13.2712 7.61489 12.4932 7.61489C12.1226 7.61489 11.9376 7.78778 11.9376 8.13239L11.8697 18.7414C11.8697 19.5475 11.8907 20.4878 11.9702 20.8991C12.0493 21.3109 12.1776 21.6459 12.3365 21.8452C12.4951 22.0442 12.6786 22.1959 12.9812 22.2586C13.2628 22.3167 14.8047 22.5153 14.8848 21.9243C14.9809 21.2162 14.9845 20.4502 15.7942 17.5934C17.0547 13.1457 18.6981 10.9756 19.4707 10.205C19.6058 10.0703 19.76 10.0622 19.7526 10.2827C19.7196 11.2578 19.6036 13.6944 19.5256 15.7644C19.3163 21.304 20.3212 22.3308 21.7572 22.3308C22.8559 22.3308 24.4046 21.2361 26.0648 18.4649C27.0998 16.7379 28.1048 15.0446 28.8268 13.8242C29.3299 14.2913 29.8946 14.794 30.4589 15.3311C31.7701 16.5792 32.2007 17.7651 31.915 18.8902C31.6965 19.7503 30.8738 20.6367 29.4094 19.7751C28.9826 19.5238 28.8004 19.3296 28.3713 19.0462C28.1407 18.894 27.7886 18.8485 27.5776 19.008C27.0293 19.4225 26.7158 19.9498 26.5367 20.6026C26.3626 21.2378 26.9969 21.5736 27.6545 21.8673C28.2207 22.1201 29.4377 22.3492 30.2138 22.3752C33.2378 22.4767 35.6603 20.911 37.3466 16.8724C37.6485 20.3602 38.9332 22.3339 41.1653 22.3339C42.6575 22.3339 44.1537 20.3995 44.808 18.4966C44.9958 19.2723 45.2739 19.9468 45.6329 20.5173C47.3529 23.2501 50.6894 22.6619 52.3655 20.3413C52.8837 19.6242 52.9625 19.3666 52.9625 19.3666C53.207 21.5578 54.9665 22.3234 55.974 22.3234C57.1024 22.3234 58.2674 21.7884 59.0839 19.945C59.1796 20.145 59.2841 20.3361 59.3981 20.5172C61.118 23.25 64.4546 22.6618 66.1306 20.3412C66.2097 20.2324 66.2782 20.1336 66.3382 20.045L66.3874 21.4843C66.3874 21.4843 65.4312 22.3639 64.8443 22.9035C62.2612 25.2801 60.297 27.0833 60.1525 29.1831C59.967 31.8605 62.1323 32.8555 63.7705 32.9859C65.5101 33.1244 66.9999 32.1607 67.9156 30.8119C68.721 29.6248 69.2481 27.0698 69.2095 24.5463C69.1941 23.5357 69.1687 22.2509 69.1488 20.8736C70.0567 19.8163 71.0796 18.4799 72.0214 16.9157C73.0479 15.2109 74.1479 12.9217 74.7112 11.1401C74.7112 11.1401 75.6669 11.1483 76.6869 11.0813C77.0131 11.06 77.1069 11.1267 77.0465 11.3666C76.9737 11.6564 75.7579 16.3592 76.8675 19.492C77.627 21.6366 79.3391 22.3266 80.3542 22.3266C81.5425 22.3266 82.6792 21.4267 83.2884 20.0904C83.3618 20.2394 83.4386 20.3835 83.5223 20.5166C85.2423 23.2494 88.5671 22.6577 90.2549 20.3406C90.6358 19.8179 90.8519 19.3659 90.8519 19.3659C91.2141 21.6337 92.9727 22.3343 93.98 22.3343C95.0292 22.3343 96.025 21.9029 96.8329 19.9858C96.8667 20.8299 96.9198 21.5201 97.0038 21.7377C97.0549 21.8708 97.3531 22.0379 97.57 22.1185C98.5298 22.4755 99.5088 22.3067 99.871 22.2333C100.122 22.1823 100.318 21.9805 100.344 21.4592C100.415 20.0906 100.371 17.7911 100.785 16.0821C101.48 13.214 102.127 12.1014 102.435 11.5507C102.607 11.2421 102.801 11.1912 102.808 11.5178C102.822 12.1786 102.855 14.1192 103.124 16.7265C103.322 18.6441 103.586 19.7775 103.789 20.1362C104.368 21.162 105.083 21.2106 105.665 21.2106C106.035 21.2106 106.81 21.1079 106.74 20.4552C106.707 20.137 106.766 18.1705 107.451 15.3449C107.898 13.4997 108.643 11.8324 108.912 11.2229C109.011 10.9981 109.057 11.1753 109.056 11.2098C108.999 12.4806 108.872 16.6371 109.388 18.9103C110.088 21.9899 112.112 22.3345 112.818 22.3345C114.324 22.3345 115.555 21.1857 115.97 18.1629C116.07 17.4355 115.922 16.8738 115.479 16.8738" fill="black"/>
</svg>
