<svg width="28" height="28" viewBox="0 0 28 28" fill="none" xmlns="http://www.w3.org/2000/svg">
<path fill-rule="evenodd" clip-rule="evenodd" d="M8.08125 3.39857C5.91194 4.13723 4.18952 5.84195 3.42676 8L10.382 8L8.10557 3.44721L8.08125 3.39857ZM3 10.5C3 10.332 3.00552 10.1653 3.0164 10L24.9836 10C24.9945 10.1653 25 10.332 25 10.5V17.5C25 21.6421 21.6421 25 17.5 25H10.5C6.35786 25 3 21.6421 3 17.5V10.5ZM17.5 3C20.7655 3 23.5436 5.08702 24.5732 8L19.118 8L18.8944 7.55279L16.618 3H17.5ZM14.6056 3.44721L16.882 8L12.618 8L12.3944 7.55279L10.1227 3.00933C10.2477 3.00313 10.3735 3 10.5 3H14.382L14.6056 3.44721ZM17.3 16.8928C17.8333 16.5849 17.8333 15.8151 17.3 15.5072L12.95 12.9957C12.4167 12.6878 11.75 13.0727 11.75 13.6885V18.7115C11.75 19.3273 12.4167 19.7122 12.95 19.4043L17.3 16.8928Z" fill="black"/>
</svg>
