<svg width="28" height="28" viewBox="0 0 28 28" fill="none" xmlns="http://www.w3.org/2000/svg">
<path fill-rule="evenodd" clip-rule="evenodd" d="M19 12.5C19 16.0899 16.0899 19 12.5 19C8.91015 19 6 16.0899 6 12.5C6 8.91015 8.91015 6 12.5 6C16.0899 6 19 8.91015 19 12.5ZM18.0731 20.1944C16.5076 21.3302 14.582 22 12.5 22C7.25329 22 3 17.7467 3 12.5C3 7.25329 7.25329 3 12.5 3C17.7467 3 22 7.25329 22 12.5C22 14.582 21.3302 16.5076 20.1944 18.0731L25.0607 22.9393C25.6464 23.5251 25.6464 24.4749 25.0607 25.0607C24.4749 25.6464 23.5251 25.6464 22.9393 25.0607L18.0731 20.1944Z" fill="black"/>
</svg>
