<svg width="28" height="28" viewBox="0 0 28 28" fill="none" xmlns="http://www.w3.org/2000/svg">
<path d="M23.5 14C23.5 15.4097 23.1522 16.8753 22.5931 18.0786C22.3839 18.5288 22.4158 19.042 22.4603 19.3909C22.5109 19.787 22.6165 20.2238 22.7357 20.6478C22.8562 21.0766 23.0007 21.5272 23.1388 21.9532C23.1551 22.0035 23.1714 22.0536 23.1875 22.1031C23.3098 22.4802 23.4245 22.8335 23.52 23.1564C23.5405 23.2258 23.5286 23.3272 23.429 23.4265C23.3292 23.5262 23.2244 23.54 23.1517 23.5188C22.8213 23.4223 22.459 23.3059 22.0729 23.1819C22.0301 23.1681 21.9869 23.1543 21.9435 23.1403C21.5162 23.0032 21.0649 22.8597 20.6363 22.7397C20.2126 22.6212 19.7773 22.5158 19.3843 22.4646C19.0423 22.4201 18.5276 22.3843 18.0783 22.5933C16.876 23.1524 15.4092 23.5 14 23.5C8.83347 23.5 4.5 19.0823 4.5 13.8851C4.5 8.70138 8.70001 4.5 13.8799 4.5C19.0753 4.5 23.5 8.83158 23.5 14Z" stroke="black" stroke-width="2"/>
</svg>
